<?xml version="1.0" encoding="UTF-8" standalone="no"?>
<!-- Created with Inkscape (http://www.inkscape.org/) -->

<svg
   xmlns:dc="http://purl.org/dc/elements/1.1/"
   xmlns:cc="http://creativecommons.org/ns#"
   xmlns:rdf="http://www.w3.org/1999/02/22-rdf-syntax-ns#"
   xmlns:svg="http://www.w3.org/2000/svg"
   xmlns="http://www.w3.org/2000/svg"
   xmlns:sodipodi="http://sodipodi.sourceforge.net/DTD/sodipodi-0.dtd"
   xmlns:inkscape="http://www.inkscape.org/namespaces/inkscape"
   width="744.09448819"
   height="1052.3622047"
   id="svg2"
   version="1.1"
   inkscape:version="0.48.4 r9939"
   sodipodi:docname="blather.svg"
   inkscape:export-filename="/storage/projects/blather/assets/blathersrc.png"
   inkscape:export-xdpi="90"
   inkscape:export-ydpi="90">
  <defs
     id="defs4" />
  <sodipodi:namedview
     id="base"
     pagecolor="#ffffff"
     bordercolor="#666666"
     borderopacity="1.0"
     inkscape:pageopacity="0.0"
     inkscape:pageshadow="2"
     inkscape:zoom="0.7"
     inkscape:cx="-332.59555"
     inkscape:cy="359.09524"
     inkscape:document-units="px"
     inkscape:current-layer="g3014"
     showgrid="false"
     inkscape:window-width="1366"
     inkscape:window-height="748"
     inkscape:window-x="0"
     inkscape:window-y="0"
     inkscape:window-maximized="1" />
  <metadata
     id="metadata7">
    <rdf:RDF>
      <cc:Work
         rdf:about="">
        <dc:format>image/svg+xml</dc:format>
        <dc:type
           rdf:resource="http://purl.org/dc/dcmitype/StillImage" />
        <dc:title></dc:title>
      </cc:Work>
    </rdf:RDF>
  </metadata>
  <g
     inkscape:groupmode="layer"
     id="layer2"
     inkscape:label="Layer"
     style="display:inline" />
  <g
     inkscape:label="Layer 1"
     inkscape:groupmode="layer"
     id="layer1"
     style="display:inline">
    <g
       id="g3021">
      <path
         inkscape:connector-curvature="0"
         d="m 279.41428,362.8165 c -79.6868,0 -144.28125,49.8972 -144.28125,111.4375 0,61.5403 64.59445,111.40625 144.28125,111.40625 17.09362,0 33.50236,-2.28624 48.71875,-6.5 l 72.71875,32.21875 -7.375,-68.90625 c 18.94346,-18.85561 30.21875,-42.50576 30.21875,-68.21875 l -0.0312,-2.125 C 422.164,411.42867 358.02781,362.8165 279.41433,362.8165 z"
         style="display:inline;fill:#00ff00;fill-rule:evenodd;stroke:none;stroke-width:15;stroke-linecap:butt;stroke-linejoin:miter;stroke-miterlimit:4;stroke-opacity:1;stroke-dasharray:none"
         id="path3825" />
      <path
         id="path2992"
         inkscape:connector-curvature="0"
         d="m 279.41428,362.8165 c -79.6868,0 -144.28125,49.8972 -144.28125,111.4375 0,61.5403 64.59445,111.40625 144.28125,111.40625 17.09362,0 33.50236,-2.28624 48.71875,-6.5 l 72.71875,32.21875 -7.375,-68.90625 c 18.94346,-18.8556 30.21875,-42.50576 30.21875,-68.21875 l -0.0312,-2.125 C 422.164,411.42867 358.02781,362.8165 279.41433,362.8165 z"
         style="fill:#00ff00;fill-rule:evenodd;stroke:#008900;stroke-width:15;stroke-linecap:butt;stroke-linejoin:miter;stroke-miterlimit:4;stroke-opacity:1;stroke-dasharray:none" />
      <text
         transform="scale(1.1228826,0.89056506)"
         sodipodi:linespacing="125%"
         id="text3762"
         y="617.89215"
         x="185.41168"
         style="font-size:130.46780396px;font-style:normal;font-weight:normal;line-height:125%;letter-spacing:0px;word-spacing:0px;fill:#ffffff;fill-opacity:1;stroke:#008900;stroke-width:5.77600002;stroke-miterlimit:4;stroke-opacity:1;stroke-dasharray:none;font-family:Sans"
         xml:space="preserve"><tspan
           style="font-size:234.84202576px;font-style:normal;font-variant:normal;font-weight:bold;font-stretch:normal;fill:#ffffff;fill-opacity:1;stroke:#008900;stroke-width:5.77600002;stroke-miterlimit:4;stroke-opacity:1;stroke-dasharray:none;font-family:Bitstream Vera Sans Mono;-inkscape-font-specification:Bitstream Vera Sans Mono Bold"
           y="617.89215"
           x="185.41168"
           id="tspan3764"
           sodipodi:role="line">B</tspan></text>
    </g>
    <g
       id="g3014">
      <path
         inkscape:connector-curvature="0"
         d="m 272.85715,656.65236 c -79.6868,0 -144.28125,49.8972 -144.28125,111.4375 0,61.5403 64.59445,111.40625 144.28125,111.40625 17.09362,0 33.50236,-2.28624 48.71875,-6.5 l 72.71875,32.21875 -7.375,-68.90625 C 405.86311,817.453 417.1384,793.80285 417.1384,768.08986 l -0.0312,-2.125 c -1.50033,-60.70033 -65.63652,-109.3125 -144.25,-109.3125 z"
         style="fill:#00ff00;fill-rule:evenodd;stroke:none;display:inline"
         id="path3825-8" />
      <path
         id="path2992-8"
         inkscape:connector-curvature="0"
         d="m 272.85715,656.65236 c -79.6868,0 -144.28125,49.8972 -144.28125,111.4375 0,61.5403 64.59445,111.40625 144.28125,111.40625 17.09362,0 33.50236,-2.28624 48.71875,-6.5 l 72.71875,32.21875 -7.375,-68.90625 c 18.94346,-18.8556 30.21875,-42.50576 30.21875,-68.21875 l -0.0312,-2.125 c -1.50033,-60.70033 -65.63652,-109.3125 -144.25,-109.3125 z"
         style="fill:#888888;fill-rule:evenodd;stroke:#666666;stroke-width:15;stroke-linecap:butt;stroke-linejoin:miter;stroke-miterlimit:4;stroke-opacity:1;stroke-dasharray:none;display:inline;fill-opacity:1" />
      <text
         transform="scale(1.1228826,0.89056506)"
         sodipodi:linespacing="125%"
         id="text3762-3"
         y="947.83533"
         x="179.57214"
         style="font-size:130.46780395999999769px;font-style:normal;font-weight:normal;line-height:125%;letter-spacing:0px;word-spacing:0px;fill:#dadada;fill-opacity:1;stroke:#666666;stroke-width:5.77600001999999968;stroke-miterlimit:4;stroke-opacity:1;stroke-dasharray:none;display:inline;font-family:Sans"
         xml:space="preserve"><tspan
           style="font-size:234.84202576000001272px;font-style:normal;font-variant:normal;font-weight:bold;font-stretch:normal;fill:#dadada;fill-opacity:1;stroke:#666666;stroke-width:5.77600001999999968;stroke-miterlimit:4;stroke-opacity:1;stroke-dasharray:none;font-family:Bitstream Vera Sans Mono;-inkscape-font-specification:Bitstream Vera Sans Mono Bold"
           y="947.83533"
           x="179.57214"
           id="tspan3764-6"
           sodipodi:role="line">B</tspan></text>
    </g>
  </g>
</svg>
