<?xml version="1.0" encoding="UTF-8" standalone="no"?>
<!-- Created with Inkscape (http://www.inkscape.org/) -->

<svg
   xmlns:dc="http://purl.org/dc/elements/1.1/"
   xmlns:cc="http://creativecommons.org/ns#"
   xmlns:rdf="http://www.w3.org/1999/02/22-rdf-syntax-ns#"
   xmlns:svg="http://www.w3.org/2000/svg"
   xmlns="http://www.w3.org/2000/svg"
   xmlns:sodipodi="http://sodipodi.sourceforge.net/DTD/sodipodi-0.dtd"
   xmlns:inkscape="http://www.inkscape.org/namespaces/inkscape"
   width="512"
   height="1024"
   id="svg2"
   version="1.1"
   inkscape:version="0.91 r13725"
   sodipodi:docname="kaylee.svg"
   inkscape:export-filename="/storage/projects/blather/assets/blathersrc.png"
   inkscape:export-xdpi="90"
   inkscape:export-ydpi="90">
  <defs
     id="defs4" />
  <sodipodi:namedview
     id="base"
     pagecolor="#ffffff"
     bordercolor="#666666"
     borderopacity="1.0"
     inkscape:pageopacity="0.0"
     inkscape:pageshadow="2"
     inkscape:zoom="0.7"
     inkscape:cx="125.62701"
     inkscape:cy="576.29859"
     inkscape:document-units="px"
     inkscape:current-layer="layer1"
     showgrid="false"
     inkscape:window-width="1600"
     inkscape:window-height="836"
     inkscape:window-x="0"
     inkscape:window-y="27"
     inkscape:window-maximized="1"
     showguides="true"
     inkscape:guide-bbox="true">
    <sodipodi:guide
       position="512,512"
       orientation="0,1"
       id="guide4144"
       inkscape:label=""
       inkscape:color="rgb(0,0,255)" />
  </sodipodi:namedview>
  <metadata
     id="metadata7">
    <rdf:RDF>
      <cc:Work
         rdf:about="">
        <dc:format>image/svg+xml</dc:format>
        <dc:type
           rdf:resource="http://purl.org/dc/dcmitype/StillImage" />
        <dc:title></dc:title>
      </cc:Work>
    </rdf:RDF>
  </metadata>
  <g
     inkscape:groupmode="layer"
     id="layer2"
     inkscape:label="Layer"
     style="display:inline"
     transform="translate(0,-28.36218)" />
  <g
     inkscape:label="Layer 1"
     inkscape:groupmode="layer"
     id="layer1"
     style="display:inline"
     transform="translate(0,-28.36218)">
    <g
       id="g3021"
       transform="matrix(1.5647225,0,0,1.5647225,-181.20581,-481.42546)">
      <path
         inkscape:connector-curvature="0"
         d="m 279.41428,362.8165 c -79.6868,0 -144.28125,49.8972 -144.28125,111.4375 0,61.5403 64.59445,111.40625 144.28125,111.40625 17.09362,0 33.50236,-2.28624 48.71875,-6.5 l 72.71875,32.21875 -7.375,-68.90625 c 18.94346,-18.85561 30.21875,-42.50576 30.21875,-68.21875 l -0.0312,-2.125 C 422.164,411.42867 358.02781,362.8165 279.41433,362.8165 Z"
         style="display:inline;fill:#00ff00;fill-rule:evenodd;stroke:none;stroke-width:15;stroke-linecap:butt;stroke-linejoin:miter;stroke-miterlimit:4;stroke-dasharray:none;stroke-opacity:1"
         id="path3825" />
      <path
         id="path2992"
         inkscape:connector-curvature="0"
         d="m 279.41428,362.8165 c -79.6868,0 -144.28125,49.8972 -144.28125,111.4375 0,61.5403 64.59445,111.40625 144.28125,111.40625 17.09362,0 33.50236,-2.28624 48.71875,-6.5 l 72.71875,32.21875 -7.375,-68.90625 c 18.94346,-18.8556 30.21875,-42.50576 30.21875,-68.21875 l -0.0312,-2.125 C 422.164,411.42867 358.02781,362.8165 279.41433,362.8165 Z"
         style="fill:#44dd44;fill-opacity:1;fill-rule:evenodd;stroke:#008900;stroke-width:15;stroke-linecap:butt;stroke-linejoin:miter;stroke-miterlimit:4;stroke-dasharray:none;stroke-opacity:1" />
      <text
         transform="scale(1.1228826,0.89056506)"
         sodipodi:linespacing="125%"
         id="text3762"
         y="617.89215"
         x="171.89372"
         style="font-style:normal;font-weight:normal;font-size:130.46780396px;line-height:125%;font-family:Sans;letter-spacing:0px;word-spacing:0px;fill:#ffffff;fill-opacity:1;stroke:#008900;stroke-width:5.77600002;stroke-miterlimit:4;stroke-dasharray:none;stroke-opacity:1"
         xml:space="preserve"><tspan
           style="font-style:normal;font-variant:normal;font-weight:bold;font-stretch:normal;font-size:234.84202576px;font-family:'Bitstream Vera Sans Mono';-inkscape-font-specification:'Bitstream Vera Sans Mono Bold';fill:#ffffff;fill-opacity:1;stroke:#008900;stroke-width:5.77600002;stroke-miterlimit:4;stroke-dasharray:none;stroke-opacity:1"
           y="617.89215"
           x="171.89372"
           id="tspan3764"
           sodipodi:role="line">K</tspan></text>
    </g>
    <g
       id="g4144"
       transform="matrix(1.5647225,0,0,1.5647225,-181.20581,30.575)">
      <path
         id="path4146"
         style="display:inline;fill:#00ff00;fill-rule:evenodd;stroke:none;stroke-width:15;stroke-linecap:butt;stroke-linejoin:miter;stroke-miterlimit:4;stroke-dasharray:none;stroke-opacity:1"
         d="m 279.41428,362.8165 c -79.6868,0 -144.28125,49.8972 -144.28125,111.4375 0,61.5403 64.59445,111.40625 144.28125,111.40625 17.09362,0 33.50236,-2.28624 48.71875,-6.5 l 72.71875,32.21875 -7.375,-68.90625 c 18.94346,-18.85561 30.21875,-42.50576 30.21875,-68.21875 l -0.0312,-2.125 C 422.164,411.42867 358.02781,362.8165 279.41433,362.8165 Z"
         inkscape:connector-curvature="0" />
      <path
         style="fill:#b7b7a5;fill-opacity:1;fill-rule:evenodd;stroke:#7a7a6e;stroke-width:15;stroke-linecap:butt;stroke-linejoin:miter;stroke-miterlimit:4;stroke-dasharray:none;stroke-opacity:1"
         d="m 279.41428,362.8165 c -79.6868,0 -144.28125,49.8972 -144.28125,111.4375 0,61.5403 64.59445,111.40625 144.28125,111.40625 17.09362,0 33.50236,-2.28624 48.71875,-6.5 l 72.71875,32.21875 -7.375,-68.90625 c 18.94346,-18.8556 30.21875,-42.50576 30.21875,-68.21875 l -0.0312,-2.125 C 422.164,411.42867 358.02781,362.8165 279.41433,362.8165 Z"
         inkscape:connector-curvature="0"
         id="path4148" />
      <text
         xml:space="preserve"
         style="font-style:normal;font-weight:normal;font-size:130.46780396px;line-height:125%;font-family:Sans;letter-spacing:0px;word-spacing:0px;fill:#f5f5dc;fill-opacity:1;stroke:#7a7a6e;stroke-width:5.77600002;stroke-miterlimit:4;stroke-dasharray:none;stroke-opacity:1"
         x="171.89372"
         y="617.89215"
         id="text4150"
         sodipodi:linespacing="125%"
         transform="scale(1.1228826,0.89056506)"><tspan
           sodipodi:role="line"
           id="tspan4152"
           x="171.89372"
           y="617.89215"
           style="font-style:normal;font-variant:normal;font-weight:bold;font-stretch:normal;font-size:234.84202576px;font-family:'Bitstream Vera Sans Mono';-inkscape-font-specification:'Bitstream Vera Sans Mono Bold';fill:#f5f5dc;fill-opacity:1;stroke:#7a7a6e;stroke-width:5.77600002;stroke-miterlimit:4;stroke-dasharray:none;stroke-opacity:1">K</tspan></text>
    </g>
  </g>
</svg>
